<?xml version="1.0" encoding="UTF-8"?>
<!DOCTYPE svg PUBLIC "-//W3C//DTD SVG 1.1//EN" "http://www.w3.org/Graphics/SVG/1.1/DTD/svg11.dtd">
<svg xmlns="http://www.w3.org/2000/svg" version="1.1" width="596px" height="419px" style="shape-rendering:geometricPrecision; text-rendering:geometricPrecision; image-rendering:optimizeQuality; fill-rule:evenodd; clip-rule:evenodd" xmlns:xlink="http://www.w3.org/1999/xlink">
<g><path style="opacity:0.947" fill="#727070" d="M 294.5,-0.5 C 295.5,-0.5 296.5,-0.5 297.5,-0.5C 298.441,1.04953 299.107,2.7162 299.5,4.5C 298.883,4.38929 298.383,4.05596 298,3.5C 297.506,5.13414 297.34,6.80081 297.5,8.5C 296.331,5.65896 295.331,2.65896 294.5,-0.5 Z"/></g>
<g><path style="opacity:1" fill="#252122" d="M 326.5,4.5 C 327.479,7.62482 327.813,10.9581 327.5,14.5C 327.437,19.2029 327.771,23.8696 328.5,28.5C 328.427,30.0269 329.094,31.0269 330.5,31.5C 331.674,32.5137 332.34,33.847 332.5,35.5C 333.63,37.3146 334.296,39.3146 334.5,41.5C 333.203,43.1612 331.87,44.8278 330.5,46.5C 328.952,50.034 328.286,53.8673 328.5,58C 328.502,61.0208 328.836,63.8541 329.5,66.5C 329.427,68.0269 330.094,69.0269 331.5,69.5C 331.427,71.0269 332.094,72.0269 333.5,72.5C 335.293,74.4261 336.293,76.7594 336.5,79.5C 336.12,81.698 336.787,83.3646 338.5,84.5C 338.427,86.0269 339.094,87.0269 340.5,87.5C 340.427,89.0269 341.094,90.0269 342.5,90.5C 343.167,90.5 343.5,90.8333 343.5,91.5C 344.167,92.8333 345.167,93.8333 346.5,94.5C 346.5,94.8333 346.5,95.1667 346.5,95.5C 345.5,95.8333 344.833,96.5 344.5,97.5C 344.5,98.1667 344.167,98.5 343.5,98.5C 341.097,98.552 338.764,98.2186 336.5,97.5C 336.027,96.0937 335.027,95.427 333.5,95.5C 332.508,95.6716 331.842,95.3382 331.5,94.5C 330.738,92.7376 329.404,91.7376 327.5,91.5C 326.508,91.6716 325.842,91.3382 325.5,90.5C 325.027,89.0937 324.027,88.427 322.5,88.5C 321.738,86.7376 320.404,85.7376 318.5,85.5C 317.508,85.6716 316.842,85.3382 316.5,84.5C 316.027,83.0937 315.027,82.427 313.5,82.5C 313.573,80.9731 312.906,79.9731 311.5,79.5C 310.167,78.5 310.167,77.5 311.5,76.5C 312.478,76.189 313.145,75.5223 313.5,74.5C 310.691,73.1997 308.024,73.1997 305.5,74.5C 294.027,75.64 288.027,81.9734 287.5,93.5C 287.157,95.4832 287.824,96.8166 289.5,97.5C 290.419,100.089 292.086,102.089 294.5,103.5C 298.912,106.571 303.579,109.238 308.5,111.5C 308.821,113.048 309.821,113.715 311.5,113.5C 313.027,113.427 314.027,114.094 314.5,115.5C 314.973,116.906 315.973,117.573 317.5,117.5C 318.492,117.328 319.158,117.662 319.5,118.5C 320.419,121.089 322.086,123.089 324.5,124.5C 324.833,125.5 325.5,126.167 326.5,126.5C 326.668,129.051 327.668,129.718 329.5,128.5C 332.01,128.946 334.01,128.28 335.5,126.5C 336.209,125.596 337.209,125.263 338.5,125.5C 341.313,125.975 343.313,124.975 344.5,122.5C 344.842,121.662 345.508,121.328 346.5,121.5C 348.027,121.573 349.027,120.906 349.5,119.5C 351.027,119.573 352.027,118.906 352.5,117.5C 353.5,116.833 354.5,116.167 355.5,115.5C 357.749,114.92 359.415,113.587 360.5,111.5C 362.167,109.167 364.167,107.167 366.5,105.5C 367.5,105.167 368.167,104.5 368.5,103.5C 369.906,103.027 370.573,102.027 370.5,100.5C 372.262,99.7377 373.262,98.4044 373.5,96.5C 373.989,95.0048 374.655,93.6715 375.5,92.5C 376.906,92.0269 377.573,91.0269 377.5,89.5C 377.66,87.847 378.326,86.5137 379.5,85.5C 380.906,85.0269 381.573,84.0269 381.5,82.5C 381.394,79.9214 382.061,77.588 383.5,75.5C 385.213,74.3646 385.88,72.698 385.5,70.5C 387.163,68.5615 387.829,66.2282 387.5,63.5C 389.847,51.0228 388.514,39.0228 383.5,27.5C 383.34,25.847 382.674,24.5137 381.5,23.5C 379.833,22.5 378.5,21.1667 377.5,19.5C 377.5,18.1667 376.833,17.5 375.5,17.5C 375.5,16.1667 374.833,15.5 373.5,15.5C 372.5,15.1667 371.833,14.5 371.5,13.5C 370.738,11.7376 369.404,10.7376 367.5,10.5C 369.833,9.83333 372.167,9.16667 374.5,8.5C 387.512,8.46344 400.512,8.79677 413.5,9.5C 442.788,11.8214 470.122,20.1548 495.5,34.5C 495.973,35.9063 496.973,36.573 498.5,36.5C 499.609,36.5569 500.609,36.8902 501.5,37.5C 502.035,39.4456 503.368,40.4456 505.5,40.5C 506.492,40.3284 507.158,40.6618 507.5,41.5C 507.821,43.0481 508.821,43.7148 510.5,43.5C 511.71,43.9321 512.71,44.5987 513.5,45.5C 513.973,46.9063 514.973,47.573 516.5,47.5C 522.145,50.8246 527.145,54.8246 531.5,59.5C 532.262,61.2624 533.596,62.2624 535.5,62.5C 535.81,64.1436 536.81,65.1436 538.5,65.5C 543.167,68.1667 546.833,71.8333 549.5,76.5C 549.833,77.5 550.5,78.1667 551.5,78.5C 552.5,78.8333 553.167,79.5 553.5,80.5C 553.833,82.8333 555.167,84.1667 557.5,84.5C 558.338,84.8417 558.672,85.5084 558.5,86.5C 558.738,88.4044 559.738,89.7377 561.5,90.5C 561.833,91.5 562.5,92.1667 563.5,92.5C 563.427,94.0269 564.094,95.0269 565.5,95.5C 566.5,95.8333 567.167,96.5 567.5,97.5C 567.427,99.0269 568.094,100.027 569.5,100.5C 569.427,102.027 570.094,103.027 571.5,103.5C 571.427,105.027 572.094,106.027 573.5,106.5C 573.427,108.027 574.094,109.027 575.5,109.5C 575.738,111.404 576.738,112.738 578.5,113.5C 579.674,114.514 580.34,115.847 580.5,117.5C 580.427,119.027 581.094,120.027 582.5,120.5C 582.427,122.027 583.094,123.027 584.5,123.5C 586.008,125.181 587.008,127.181 587.5,129.5C 587.427,131.027 588.094,132.027 589.5,132.5C 591.674,135.515 593.341,138.849 594.5,142.5C 594.5,143.833 593.833,144.5 592.5,144.5C 591.209,144.737 590.209,144.404 589.5,143.5C 587.562,141.837 585.228,141.171 582.5,141.5C 576.504,141.565 570.837,142.898 565.5,145.5C 564.5,145.833 563.833,146.5 563.5,147.5C 563.573,149.027 562.906,150.027 561.5,150.5C 560.094,150.973 559.427,151.973 559.5,153.5C 553.855,177.317 549.021,201.317 545,225.5C 544.76,227.852 543.927,229.852 542.5,231.5C 541.833,231.833 541.167,232.167 540.5,232.5C 538.67,225.357 535.67,218.691 531.5,212.5C 531.167,210.167 529.833,208.833 527.5,208.5C 526.391,208.443 525.391,208.11 524.5,207.5C 523.551,206.848 522.385,206.514 521,206.5C 518.779,206.393 516.946,207.06 515.5,208.5C 509.78,212.039 504.447,216.206 499.5,221C 494.267,227.332 488.934,233.498 483.5,239.5C 482.094,239.973 481.427,240.973 481.5,242.5C 471.527,255.803 460.527,268.137 448.5,279.5C 447.167,279.5 446.5,278.833 446.5,277.5C 447.906,277.027 448.573,276.027 448.5,274.5C 448.992,272.181 449.992,270.181 451.5,268.5C 452.906,268.027 453.573,267.027 453.5,265.5C 455.954,258.592 458.954,251.925 462.5,245.5C 464.213,244.365 464.88,242.698 464.5,240.5C 466.519,233.741 468.519,227.074 470.5,220.5C 471.913,217.781 472.58,214.781 472.5,211.5C 473.532,200.269 475.198,189.269 477.5,178.5C 478.043,178.44 478.376,178.107 478.5,177.5C 477.311,176.571 475.978,176.238 474.5,176.5C 472.866,175.839 471.033,175.506 469,175.5C 465.549,175.421 462.382,176.087 459.5,177.5C 444.666,182.661 432.666,191.661 423.5,204.5C 422.5,204.833 421.833,205.5 421.5,206.5C 418.429,211.522 415.262,216.522 412,221.5C 410.278,218.721 409.111,215.721 408.5,212.5C 408.446,210.368 407.446,209.035 405.5,208.5C 405.5,206.5 404.5,205.5 402.5,205.5C 402.5,203.5 401.5,202.5 399.5,202.5C 399.027,201.094 398.027,200.427 396.5,200.5C 387.331,197.561 378.331,197.895 369.5,201.5C 367.973,201.427 366.973,202.094 366.5,203.5C 361.43,208.624 357.596,214.624 355,221.5C 345.708,214.993 336.541,214.993 327.5,221.5C 326.094,221.973 325.427,222.973 325.5,224.5C 324.396,226.389 323.063,228.055 321.5,229.5C 320.133,232.012 320.466,234.345 322.5,236.5C 324.105,239.378 325.439,242.378 326.5,245.5C 326.427,247.027 327.094,248.027 328.5,248.5C 328.5,248.833 328.5,249.167 328.5,249.5C 329.08,251.749 330.413,253.415 332.5,254.5C 332.427,256.027 333.094,257.027 334.5,257.5C 336.218,259.223 337.551,261.223 338.5,263.5C 338.738,265.404 339.738,266.738 341.5,267.5C 342.338,267.842 342.672,268.508 342.5,269.5C 342.427,271.027 343.094,272.027 344.5,272.5C 344.427,274.027 345.094,275.027 346.5,275.5C 346.427,277.027 347.094,278.027 348.5,278.5C 348.5,278.833 348.5,279.167 348.5,279.5C 348.427,281.027 349.094,282.027 350.5,282.5C 354.304,287.553 356.971,293.22 358.5,299.5C 358.166,302.491 359.166,304.824 361.5,306.5C 362.341,308.379 362.675,310.379 362.5,312.5C 362.565,315.428 363.232,318.095 364.5,320.5C 368.927,344.451 364.427,366.784 351,387.5C 348.666,391 345.832,394 342.5,396.5C 340.5,397.833 338.833,399.5 337.5,401.5C 332.591,406.3 326.925,410.133 320.5,413C 317.647,414.43 314.647,415.263 311.5,415.5C 308.848,415.41 306.515,416.076 304.5,417.5C 303.508,417.328 302.842,417.662 302.5,418.5C 294.5,418.5 286.5,418.5 278.5,418.5C 278.5,417.833 278.167,417.5 277.5,417.5C 275.162,415.96 272.495,415.294 269.5,415.5C 266.921,415.606 264.588,414.939 262.5,413.5C 262.027,412.094 261.027,411.427 259.5,411.5C 257.181,411.008 255.181,410.008 253.5,408.5C 253.027,407.094 252.027,406.427 250.5,406.5C 250.027,405.094 249.027,404.427 247.5,404.5C 247.5,402.5 246.5,401.5 244.5,401.5C 240.613,398.728 237.946,395.061 236.5,390.5C 236.715,388.821 236.048,387.821 234.5,387.5C 230.423,376.651 229.923,365.651 233,354.5C 233.941,352.273 235.108,350.273 236.5,348.5C 237.906,348.027 238.573,347.027 238.5,345.5C 238.328,344.508 238.662,343.842 239.5,343.5C 240.833,342.833 241.833,341.833 242.5,340.5C 245.089,339.581 247.089,337.914 248.5,335.5C 250.148,334.073 252.148,333.24 254.5,333C 262.509,331.709 270.176,332.709 277.5,336C 279.041,337.371 280.375,338.871 281.5,340.5C 281.427,342.027 282.094,343.027 283.5,343.5C 284.268,344.263 284.768,345.263 285,346.5C 285.667,350.167 285.667,353.833 285,357.5C 284.303,359.584 283.136,361.251 281.5,362.5C 280.5,362.833 279.833,363.5 279.5,364.5C 277.71,365.997 275.544,366.664 273,366.5C 271.293,366.492 269.793,366.158 268.5,365.5C 268.047,364.542 267.381,363.708 266.5,363C 267.094,362.536 267.761,362.369 268.5,362.5C 271.237,362.599 273.904,362.265 276.5,361.5C 278.5,361.5 279.5,360.5 279.5,358.5C 280.324,355.236 280.658,351.902 280.5,348.5C 280.715,346.821 280.048,345.821 278.5,345.5C 277.512,344.205 276.512,342.872 275.5,341.5C 275.027,340.094 274.027,339.427 272.5,339.5C 271.365,337.787 269.698,337.12 267.5,337.5C 260.029,337.571 253.362,339.904 247.5,344.5C 246.094,344.973 245.427,345.973 245.5,347.5C 241.264,352.293 239.264,357.96 239.5,364.5C 239.863,369.648 240.863,374.648 242.5,379.5C 242.427,381.027 243.094,382.027 244.5,382.5C 245.338,382.842 245.672,383.508 245.5,384.5C 245.427,386.027 246.094,387.027 247.5,387.5C 248.757,390.427 250.757,392.761 253.5,394.5C 255.674,394.75 257.341,395.75 258.5,397.5C 258.973,398.906 259.973,399.573 261.5,399.5C 272.042,404.373 283.042,405.707 294.5,403.5C 297.992,403.554 300.992,402.554 303.5,400.5C 306.515,398.326 309.849,396.659 313.5,395.5C 315.027,395.573 316.027,394.906 316.5,393.5C 318.404,393.262 319.738,392.262 320.5,390.5C 321.5,390.167 322.167,389.5 322.5,388.5C 325.167,387.833 326.833,386.167 327.5,383.5C 329.587,382.415 330.92,380.749 331.5,378.5C 332.906,378.027 333.573,377.027 333.5,375.5C 333.893,373.716 334.559,372.05 335.5,370.5C 336.906,370.027 337.573,369.027 337.5,367.5C 337.5,367.167 337.5,366.833 337.5,366.5C 339.213,365.365 339.88,363.698 339.5,361.5C 343.023,345.099 340.189,329.766 331,315.5C 328.574,312.309 326.407,308.975 324.5,305.5C 324.573,303.973 323.906,302.973 322.5,302.5C 322.446,300.368 321.446,299.035 319.5,298.5C 319.573,296.973 318.906,295.973 317.5,295.5C 316.833,295.5 316.5,295.167 316.5,294.5C 316.5,293.167 315.833,292.5 314.5,292.5C 312.174,289.172 309.841,285.839 307.5,282.5C 307.5,280.5 306.5,279.5 304.5,279.5C 302.445,277.445 300.779,275.112 299.5,272.5C 299.446,270.368 298.446,269.035 296.5,268.5C 294.738,267.738 293.738,266.404 293.5,264.5C 293.446,262.368 292.446,261.035 290.5,260.5C 285.659,255.646 281.993,249.98 279.5,243.5C 279.715,241.821 279.048,240.821 277.5,240.5C 274.835,235.207 272.169,229.874 269.5,224.5C 269.573,222.973 268.906,221.973 267.5,221.5C 264.797,219.819 262.131,218.153 259.5,216.5C 258.036,215.84 256.369,215.507 254.5,215.5C 251.795,215.316 249.462,215.983 247.5,217.5C 245.014,218.662 242.514,219.996 240,221.5C 238.214,218.264 236.714,214.93 235.5,211.5C 235.446,209.368 234.446,208.035 232.5,207.5C 232.5,206.167 231.833,205.5 230.5,205.5C 229.5,205.167 228.833,204.5 228.5,203.5C 227.738,201.738 226.404,200.738 224.5,200.5C 205.837,194.175 192.504,199.841 184.5,217.5C 183.778,217.918 183.278,218.584 183,219.5C 182.241,217.937 181.074,216.937 179.5,216.5C 178.655,215.329 177.989,213.995 177.5,212.5C 177.446,210.368 176.446,209.035 174.5,208.5C 173.662,208.158 173.328,207.492 173.5,206.5C 172.855,204.174 171.522,202.507 169.5,201.5C 166.158,198.124 162.825,194.791 159.5,191.5C 159.167,189.167 157.833,187.833 155.5,187.5C 155.027,186.094 154.027,185.427 152.5,185.5C 152.027,184.094 151.027,183.427 149.5,183.5C 148.508,183.672 147.842,183.338 147.5,182.5C 147.027,181.094 146.027,180.427 144.5,180.5C 142.898,178.926 140.898,178.259 138.5,178.5C 135.627,178.198 132.961,177.531 130.5,176.5C 127.024,175.357 123.358,175.19 119.5,176C 118.376,176.249 117.376,176.749 116.5,177.5C 116.624,178.107 116.957,178.44 117.5,178.5C 119.802,189.269 121.468,200.269 122.5,211.5C 122.42,214.781 123.087,217.781 124.5,220.5C 126.481,227.074 128.481,233.741 130.5,240.5C 130.12,242.698 130.787,244.365 132.5,245.5C 136.046,251.925 139.046,258.592 141.5,265.5C 141.427,267.027 142.094,268.027 143.5,268.5C 145.008,270.181 146.008,272.181 146.5,274.5C 146.427,276.027 147.094,277.027 148.5,277.5C 148.5,278.833 147.833,279.5 146.5,279.5C 144.167,277.833 142.167,275.833 140.5,273.5C 139.598,271.659 138.264,270.326 136.5,269.5C 134.833,268.5 133.5,267.167 132.5,265.5C 132.446,263.368 131.446,262.035 129.5,261.5C 127.833,260.5 126.5,259.167 125.5,257.5C 125.715,255.821 125.048,254.821 123.5,254.5C 122.5,254.167 121.833,253.5 121.5,252.5C 121.446,250.368 120.446,249.035 118.5,248.5C 116.863,246.525 115.196,244.525 113.5,242.5C 113.573,240.973 112.906,239.973 111.5,239.5C 110.833,239.5 110.5,239.167 110.5,238.5C 110.5,237.167 109.833,236.5 108.5,236.5C 104.476,231.481 100.476,226.481 96.5,221.5C 95.4154,219.413 93.7488,218.08 91.5,217.5C 90.8333,214.833 89.1667,213.167 86.5,212.5C 83.3374,210.754 80.004,209.254 76.5,208C 72.9277,207.153 69.5943,207.653 66.5,209.5C 65.1667,209.5 64.5,210.167 64.5,211.5C 59.5168,217.591 56.3502,224.591 55,232.5C 54.1072,233.711 53.2739,233.711 52.5,232.5C 46.5904,206.232 40.9237,179.898 35.5,153.5C 35.573,151.973 34.9063,150.973 33.5,150.5C 32.0937,150.027 31.427,149.027 31.5,147.5C 31.1667,146.5 30.5,145.833 29.5,145.5C 25.1205,143.288 20.4538,141.955 15.5,141.5C 11.1131,142.347 6.77974,143.347 2.5,144.5C 1.50838,144.672 0.841711,144.338 0.5,143.5C 1.37641,139.418 3.04308,135.751 5.5,132.5C 6.90632,132.027 7.57298,131.027 7.5,129.5C 7.99249,127.181 8.99249,125.181 10.5,123.5C 11.9063,123.027 12.573,122.027 12.5,120.5C 13.9063,120.027 14.573,119.027 14.5,117.5C 14.6596,115.847 15.3263,114.514 16.5,113.5C 18.2624,112.738 19.2624,111.404 19.5,109.5C 20.9063,109.027 21.573,108.027 21.5,106.5C 22.9063,106.027 23.573,105.027 23.5,103.5C 24.9063,103.027 25.573,102.027 25.5,100.5C 26.9063,100.027 27.573,99.0269 27.5,97.5C 27.8333,96.5 28.5,95.8333 29.5,95.5C 30.9063,95.0269 31.573,94.0269 31.5,92.5C 32.5,92.1667 33.1667,91.5 33.5,90.5C 35.2624,89.7377 36.2624,88.4044 36.5,86.5C 38.914,85.0892 40.5806,83.0892 41.5,80.5C 41.8333,79.5 42.5,78.8333 43.5,78.5C 44.5,78.1667 45.1667,77.5 45.5,76.5C 48.1667,71.8333 51.8333,68.1667 56.5,65.5C 57.5,65.1667 58.1667,64.5 58.5,63.5C 60.7488,62.9202 62.4154,61.5869 63.5,59.5C 64.5,59.1667 65.1667,58.5 65.5,57.5C 67.0269,57.573 68.0269,56.9063 68.5,55.5C 69.1667,54.1667 70.1667,53.1667 71.5,52.5C 73.0269,52.573 74.0269,51.9063 74.5,50.5C 74.8417,49.6618 75.5084,49.3284 76.5,49.5C 78.7488,48.9202 80.4154,47.5869 81.5,45.5C 82.8993,44.1103 84.5659,43.1103 86.5,42.5C 88.0269,42.573 89.0269,41.9063 89.5,40.5C 91.0269,40.573 92.0269,39.9063 92.5,38.5C 94.1815,36.9925 96.1815,35.9925 98.5,35.5C 100.027,35.573 101.027,34.9063 101.5,33.5C 101.842,32.6618 102.508,32.3284 103.5,32.5C 105.967,32.2451 107.967,31.2451 109.5,29.5C 109.833,29.5 110.167,29.5 110.5,29.5C 112.967,29.2451 114.967,28.2451 116.5,26.5C 118.426,24.7073 120.759,23.7073 123.5,23.5C 126.716,23.6545 129.383,22.6545 131.5,20.5C 133.898,20.7406 135.898,20.0739 137.5,18.5C 141.162,18.2766 144.495,17.2766 147.5,15.5C 150.37,14.3664 153.37,13.6997 156.5,13.5C 159.781,13.5797 162.781,12.913 165.5,11.5C 174.25,9.52336 183.25,8.52336 192.5,8.5C 201.506,8.33356 210.506,8.50023 219.5,9C 222.365,9.1829 225.031,9.6829 227.5,10.5C 219.302,16.5311 213.136,24.1977 209,33.5C 206.248,43.3659 205.748,53.3659 207.5,63.5C 207.171,66.2282 207.837,68.5615 209.5,70.5C 209.12,72.698 209.787,74.3646 211.5,75.5C 212.939,77.588 213.606,79.9214 213.5,82.5C 213.427,84.0269 214.094,85.0269 215.5,85.5C 216.674,86.5137 217.34,87.847 217.5,89.5C 217.427,91.0269 218.094,92.0269 219.5,92.5C 220.345,93.6715 221.011,95.0048 221.5,96.5C 221.738,98.4044 222.738,99.7377 224.5,100.5C 224.427,102.027 225.094,103.027 226.5,103.5C 226.833,104.5 227.5,105.167 228.5,105.5C 230.833,107.167 232.833,109.167 234.5,111.5C 234.973,112.906 235.973,113.573 237.5,113.5C 239.93,115.945 242.596,117.945 245.5,119.5C 245.973,120.906 246.973,121.573 248.5,121.5C 248.811,122.478 249.478,123.145 250.5,123.5C 251.496,117.537 251.829,111.537 251.5,105.5C 251.763,100.23 252.763,95.2301 254.5,90.5C 256.213,89.3646 256.88,87.698 256.5,85.5C 256.328,84.5084 256.662,83.8417 257.5,83.5C 258.906,83.0269 259.573,82.0269 259.5,80.5C 259.229,78.6203 259.896,77.287 261.5,76.5C 262.906,76.0269 263.573,75.0269 263.5,73.5C 263.833,72.5 264.5,71.8333 265.5,71.5C 266.833,70.8333 267.833,69.8333 268.5,68.5C 270.404,68.2624 271.738,67.2624 272.5,65.5C 274.027,65.573 275.027,64.9063 275.5,63.5C 275.833,63.5 276.167,63.5 276.5,63.5C 278.698,63.8799 280.365,63.2132 281.5,61.5C 285.213,59.315 289.213,57.6483 293.5,56.5C 296.716,56.6545 299.383,55.6545 301.5,53.5C 301.833,53.5 302.167,53.5 302.5,53.5C 305.167,53.1667 307.833,52.8333 310.5,52.5C 310.5,50.8333 310.5,49.1667 310.5,47.5C 310.666,42.8215 310.499,38.1548 310,33.5C 309.003,31.6769 307.836,30.0103 306.5,28.5C 306.573,26.9731 305.906,25.9731 304.5,25.5C 303.094,25.0269 302.427,24.0269 302.5,22.5C 303.632,21.6457 304.965,21.6457 306.5,22.5C 308.858,24.5293 311.192,26.5293 313.5,28.5C 313.821,30.0481 314.821,30.7148 316.5,30.5C 317.15,32.4352 317.483,34.4352 317.5,36.5C 317.588,41.5364 318.088,46.5364 319,51.5C 319.667,52.1667 320.333,52.8333 321,53.5C 322.509,50.0535 324.009,46.7202 325.5,43.5C 327.262,42.7377 328.262,41.4044 328.5,39.5C 325.704,33.4453 323.704,27.112 322.5,20.5C 323.725,15.0137 325.058,9.68033 326.5,4.5 Z"/></g>
<g><path style="opacity:0.278" fill="#c5c3c4" d="M 192.5,8.5 C 201.657,7.34235 210.991,7.17569 220.5,8C 223.226,8.18156 225.893,8.68156 228.5,9.5C 228.376,10.1067 228.043,10.44 227.5,10.5C 225.031,9.6829 222.365,9.1829 219.5,9C 210.506,8.50023 201.506,8.33356 192.5,8.5 Z"/></g>
<g><path style="opacity:0.522" fill="#a19f9f" d="M 327.5,14.5 C 327.813,10.9581 327.479,7.62482 326.5,4.5C 326.783,3.71087 327.283,3.0442 328,2.5C 328.812,6.68879 328.645,10.6888 327.5,14.5 Z"/></g>
<g><path style="opacity:0.278" fill="#cac8c9" d="M 374.5,8.5 C 378.988,7.83413 383.654,7.5008 388.5,7.5C 397.043,7.4294 405.376,8.09606 413.5,9.5C 400.512,8.79677 387.512,8.46344 374.5,8.5 Z"/></g>
<g><path style="opacity:0.722" fill="#888686" d="M 374.5,8.5 C 372.167,9.16667 369.833,9.83333 367.5,10.5C 366.957,10.44 366.624,10.1067 366.5,9.5C 369.086,8.51998 371.753,8.18665 374.5,8.5 Z"/></g>
<g><path style="opacity:0.941" fill="#615d5e" d="M 299.5,4.5 C 300.918,8.28731 301.918,12.2873 302.5,16.5C 302.167,17.5 301.5,18.1667 300.5,18.5C 298.757,15.5048 297.757,12.1715 297.5,8.5C 297.34,6.80081 297.506,5.13414 298,3.5C 298.383,4.05596 298.883,4.38929 299.5,4.5 Z"/></g>
<g><path style="opacity:0.58" fill="#b3b1b2" d="M 367.5,10.5 C 369.404,10.7376 370.738,11.7376 371.5,13.5C 369.596,13.2624 368.262,12.2624 367.5,10.5 Z"/></g>
<g><path style="opacity:0.776" fill="#939192" d="M 165.5,11.5 C 162.781,12.913 159.781,13.5797 156.5,13.5C 159.219,12.087 162.219,11.4203 165.5,11.5 Z"/></g>
<g><path style="opacity:0.631" fill="#acaaab" d="M 373.5,15.5 C 374.833,15.5 375.5,16.1667 375.5,17.5C 374.5,17.1667 373.833,16.5 373.5,15.5 Z"/></g>
<g><path style="opacity:0.765" fill="#8e8c8c" d="M 147.5,15.5 C 144.495,17.2766 141.162,18.2766 137.5,18.5C 140.505,16.7234 143.838,15.7234 147.5,15.5 Z"/></g>
<g><path style="opacity:0.965" fill="#6c6a6a" d="M 302.5,16.5 C 303.82,18.4632 305.154,20.4632 306.5,22.5C 304.965,21.6457 303.632,21.6457 302.5,22.5C 300.896,21.713 300.229,20.3797 300.5,18.5C 301.5,18.1667 302.167,17.5 302.5,16.5 Z"/></g>
<g><path style="opacity:0.667" fill="#a7a5a6" d="M 375.5,17.5 C 376.833,17.5 377.5,18.1667 377.5,19.5C 376.5,19.1667 375.833,18.5 375.5,17.5 Z"/></g>
<g><path style="opacity:0.824" fill="#939191" d="M 137.5,18.5 C 135.898,20.0739 133.898,20.7406 131.5,20.5C 133.214,19.2616 135.214,18.595 137.5,18.5 Z"/></g>
<g><path style="opacity:0.882" fill="#777475" d="M 131.5,20.5 C 129.383,22.6545 126.716,23.6545 123.5,23.5C 125.936,22.129 128.603,21.129 131.5,20.5 Z"/></g>
<g><path style="opacity:0.169" fill="#bcbbbb" d="M 381.5,23.5 C 382.674,24.5137 383.34,25.847 383.5,27.5C 381.896,26.713 381.229,25.3797 381.5,23.5 Z"/></g>
<g><path style="opacity:0.004" fill="#d4d3d3" d="M 304.5,25.5 C 305.906,25.9731 306.573,26.9731 306.5,28.5C 305.094,28.0269 304.427,27.0269 304.5,25.5 Z"/></g>
<g><path style="opacity:0.702" fill="#8a8889" d="M 116.5,26.5 C 114.967,28.2451 112.967,29.2451 110.5,29.5C 112.033,27.7549 114.033,26.7549 116.5,26.5 Z"/></g>
<g><path style="opacity:0.886" fill="#8b898a" d="M 313.5,28.5 C 314.71,28.9321 315.71,29.5987 316.5,30.5C 314.821,30.7148 313.821,30.0481 313.5,28.5 Z"/></g>
<g><path style="opacity:0.196" fill="#cac9c9" d="M 328.5,28.5 C 329.906,28.9731 330.573,29.9731 330.5,31.5C 329.094,31.0269 328.427,30.0269 328.5,28.5 Z"/></g>
<g><path style="opacity:0.576" fill="#9a9898" d="M 109.5,29.5 C 107.967,31.2451 105.967,32.2451 103.5,32.5C 105.033,30.7549 107.033,29.7549 109.5,29.5 Z"/></g>
<g><path style="opacity:0.576" fill="#949192" d="M 316.5,30.5 C 317.947,31.1342 318.613,32.3009 318.5,34C 318.472,35.0698 318.139,35.9032 317.5,36.5C 317.483,34.4352 317.15,32.4352 316.5,30.5 Z"/></g>
<g><path style="opacity:0.706" fill="#9b999a" d="M 101.5,33.5 C 101.027,34.9063 100.027,35.573 98.5,35.5C 98.9731,34.0937 99.9731,33.427 101.5,33.5 Z"/></g>
<g><path style="opacity:0.004" fill="#dbdbdb" d="M 495.5,34.5 C 497.027,34.427 498.027,35.0937 498.5,36.5C 496.973,36.573 495.973,35.9063 495.5,34.5 Z"/></g>
<g><path style="opacity:0.835" fill="#a09e9f" d="M 332.5,35.5 C 335.349,36.9196 336.016,38.9196 334.5,41.5C 334.296,39.3146 333.63,37.3146 332.5,35.5 Z"/></g>
<g><path style="opacity:0.878" fill="#999798" d="M 501.5,37.5 C 503.23,38.0256 504.564,39.0256 505.5,40.5C 503.368,40.4456 502.035,39.4456 501.5,37.5 Z"/></g>
<g><path style="opacity:0.62" fill="#a4a3a3" d="M 92.5,38.5 C 92.0269,39.9063 91.0269,40.573 89.5,40.5C 89.9731,39.0937 90.9731,38.427 92.5,38.5 Z"/></g>
<g><path style="opacity:0.651" fill="#a8a6a6" d="M 328.5,39.5 C 328.262,41.4044 327.262,42.7377 325.5,43.5C 325.738,41.5956 326.738,40.2623 328.5,39.5 Z"/></g>
<g><path style="opacity:0.624" fill="#a7a5a6" d="M 89.5,40.5 C 89.0269,41.9063 88.0269,42.573 86.5,42.5C 86.9731,41.0937 87.9731,40.427 89.5,40.5 Z"/></g>
<g><path style="opacity:0.918" fill="#7f7c7d" d="M 507.5,41.5 C 508.71,41.9321 509.71,42.5987 510.5,43.5C 508.821,43.7148 507.821,43.0481 507.5,41.5 Z"/></g>
<g><path style="opacity:0.004" fill="#d6d5d5" d="M 513.5,45.5 C 515.027,45.427 516.027,46.0937 516.5,47.5C 514.973,47.573 513.973,46.9063 513.5,45.5 Z"/></g>
<g><path style="opacity:0.922" fill="#7c797a" d="M 81.5,45.5 C 80.4154,47.5869 78.7488,48.9202 76.5,49.5C 77.5846,47.4131 79.2512,46.0798 81.5,45.5 Z"/></g>
<g><path style="opacity:0.604" fill="#a7a5a6" d="M 74.5,50.5 C 74.0269,51.9063 73.0269,52.573 71.5,52.5C 71.9731,51.0937 72.9731,50.427 74.5,50.5 Z"/></g>
<g><path style="opacity:0.835" fill="#939091" d="M 310.5,47.5 C 310.5,49.1667 310.5,50.8333 310.5,52.5C 307.833,52.8333 305.167,53.1667 302.5,53.5C 304.515,52.0762 306.848,51.4095 309.5,51.5C 309.232,49.901 309.566,48.5676 310.5,47.5 Z"/></g>
<g><path style="opacity:0.804" fill="#8e8c8d" d="M 301.5,53.5 C 299.383,55.6545 296.716,56.6545 293.5,56.5C 295.936,55.129 298.603,54.129 301.5,53.5 Z"/></g>
<g><path style="opacity:0.678" fill="#9b9999" d="M 68.5,55.5 C 68.0269,56.9063 67.0269,57.573 65.5,57.5C 65.9731,56.0937 66.9731,55.427 68.5,55.5 Z"/></g>
<g><path style="opacity:0.291" fill="#b0afaf" d="M 330.5,46.5 C 329.669,53.1311 329.336,59.7978 329.5,66.5C 328.836,63.8541 328.502,61.0208 328.5,58C 328.286,53.8673 328.952,50.034 330.5,46.5 Z"/></g>
<g><path style="opacity:0.384" fill="#b9b7b7" d="M 65.5,57.5 C 65.1667,58.5 64.5,59.1667 63.5,59.5C 63.5,58.1667 64.1667,57.5 65.5,57.5 Z"/></g>
<g><path style="opacity:0.004" fill="#d0cfcf" d="M 531.5,59.5 C 533.404,59.7376 534.738,60.7376 535.5,62.5C 533.596,62.2624 532.262,61.2624 531.5,59.5 Z"/></g>
<g><path style="opacity:0.655" fill="#a5a3a4" d="M 63.5,59.5 C 62.4154,61.5869 60.7488,62.9202 58.5,63.5C 59.5846,61.4131 61.2512,60.0798 63.5,59.5 Z"/></g>
<g><path style="opacity:0.918" fill="#7d7b7c" d="M 281.5,61.5 C 280.365,63.2132 278.698,63.8799 276.5,63.5C 277.93,62.4625 279.597,61.7959 281.5,61.5 Z"/></g>
<g><path style="opacity:0.275" fill="#cac9c9" d="M 58.5,63.5 C 58.1667,64.5 57.5,65.1667 56.5,65.5C 56.5,64.1667 57.1667,63.5 58.5,63.5 Z"/></g>
<g><path style="opacity:0.004" fill="#bdbcbc" d="M 535.5,62.5 C 537.19,62.8564 538.19,63.8564 538.5,65.5C 536.81,65.1436 535.81,64.1436 535.5,62.5 Z"/></g>
<g><path style="opacity:0.765" fill="#949393" d="M 275.5,63.5 C 275.027,64.9063 274.027,65.573 272.5,65.5C 272.973,64.0937 273.973,63.427 275.5,63.5 Z"/></g>
<g><path style="opacity:0.753" fill="#828081" d="M 272.5,65.5 C 271.738,67.2624 270.404,68.2624 268.5,68.5C 269.262,66.7376 270.596,65.7376 272.5,65.5 Z"/></g>
<g><path style="opacity:0.804" fill="#9c9a9b" d="M 207.5,63.5 C 208.612,65.5994 209.279,67.9327 209.5,70.5C 207.837,68.5615 207.171,66.2282 207.5,63.5 Z"/></g>
<g><path style="opacity:0.8" fill="#9c9a9b" d="M 387.5,63.5 C 387.829,66.2282 387.163,68.5615 385.5,70.5C 385.721,67.9327 386.388,65.5994 387.5,63.5 Z"/></g>
<g><path style="opacity:0.286" fill="#c2c1c1" d="M 329.5,66.5 C 330.906,66.9731 331.573,67.9731 331.5,69.5C 330.094,69.0269 329.427,68.0269 329.5,66.5 Z"/></g>
<g><path style="opacity:0.388" fill="#bbb9b9" d="M 268.5,68.5 C 267.833,69.8333 266.833,70.8333 265.5,71.5C 265.5,69.5 266.5,68.5 268.5,68.5 Z"/></g>
<g><path style="opacity:0.478" fill="#979596" d="M 331.5,69.5 C 332.906,69.9731 333.573,70.9731 333.5,72.5C 332.094,72.0269 331.427,71.0269 331.5,69.5 Z"/></g>
<g><path style="opacity:0.812" fill="#9b9999" d="M 209.5,70.5 C 210.537,71.9303 211.204,73.597 211.5,75.5C 209.787,74.3646 209.12,72.698 209.5,70.5 Z"/></g>
<g><path style="opacity:0.804" fill="#9b9999" d="M 385.5,70.5 C 385.88,72.698 385.213,74.3646 383.5,75.5C 383.796,73.597 384.463,71.9303 385.5,70.5 Z"/></g>
<g><path style="opacity:0.506" fill="#8d8b8b" d="M 305.5,74.5 C 308.024,73.1997 310.691,73.1997 313.5,74.5C 313.145,75.5223 312.478,76.189 311.5,76.5C 310.082,74.6921 308.082,74.0254 305.5,74.5 Z"/></g>
<g><path style="opacity:0.345" fill="#b7b6b6" d="M 263.5,73.5 C 263.573,75.0269 262.906,76.0269 261.5,76.5C 261.427,74.9731 262.094,73.9731 263.5,73.5 Z"/></g>
<g><path style="opacity:0.012" fill="#cdcccc" d="M 549.5,76.5 C 550.833,76.5 551.5,77.1667 551.5,78.5C 550.5,78.1667 549.833,77.5 549.5,76.5 Z"/></g>
<g><path style="opacity:0.376" fill="#b7b6b6" d="M 45.5,76.5 C 45.1667,77.5 44.5,78.1667 43.5,78.5C 43.5,77.1667 44.1667,76.5 45.5,76.5 Z"/></g>
<g><path style="opacity:0.008" fill="#d6d5d5" d="M 311.5,79.5 C 312.906,79.9731 313.573,80.9731 313.5,82.5C 312.094,82.0269 311.427,81.0269 311.5,79.5 Z"/></g>
<g><path style="opacity:0.667" fill="#aeacad" d="M 553.5,80.5 C 555.167,81.5 556.5,82.8333 557.5,84.5C 555.167,84.1667 553.833,82.8333 553.5,80.5 Z"/></g>
<g><path style="opacity:0.573" fill="#a3a1a1" d="M 41.5,80.5 C 40.5806,83.0892 38.914,85.0892 36.5,86.5C 37.4194,83.9108 39.086,81.9108 41.5,80.5 Z"/></g>
<g><path style="opacity:0.184" fill="#c4c3c3" d="M 259.5,80.5 C 259.573,82.0269 258.906,83.0269 257.5,83.5C 257.427,81.9731 258.094,80.9731 259.5,80.5 Z"/></g>
<g><path style="opacity:0.894" fill="#7d7a7b" d="M 336.5,79.5 C 337.537,80.9303 338.204,82.597 338.5,84.5C 336.787,83.3646 336.12,81.698 336.5,79.5 Z"/></g>
<g><path style="opacity:0.29" fill="#bcbabb" d="M 313.5,82.5 C 315.027,82.427 316.027,83.0937 316.5,84.5C 314.973,84.573 313.973,83.9063 313.5,82.5 Z"/></g>
<g><path style="opacity:0.263" fill="#bcbbbb" d="M 213.5,82.5 C 214.906,82.9731 215.573,83.9731 215.5,85.5C 214.094,85.0269 213.427,84.0269 213.5,82.5 Z"/></g>
<g><path style="opacity:0.263" fill="#bcbbbb" d="M 381.5,82.5 C 381.573,84.0269 380.906,85.0269 379.5,85.5C 379.427,83.9731 380.094,82.9731 381.5,82.5 Z"/></g>
<g><path style="opacity:0.737" fill="#9f9d9e" d="M 318.5,85.5 C 320.404,85.7376 321.738,86.7376 322.5,88.5C 320.596,88.2624 319.262,87.2624 318.5,85.5 Z"/></g>
<g><path style="opacity:0.212" fill="#c4c3c3" d="M 338.5,84.5 C 339.906,84.9731 340.573,85.9731 340.5,87.5C 339.094,87.0269 338.427,86.0269 338.5,84.5 Z"/></g>
<g><path style="opacity:0.729" fill="#9f9d9e" d="M 36.5,86.5 C 36.2624,88.4044 35.2624,89.7377 33.5,90.5C 33.7376,88.5956 34.7376,87.2623 36.5,86.5 Z"/></g>
<g><path style="opacity:0.725" fill="#9f9d9e" d="M 558.5,86.5 C 560.262,87.2623 561.262,88.5956 561.5,90.5C 559.738,89.7377 558.738,88.4044 558.5,86.5 Z"/></g>
<g><path style="opacity:0.839" fill="#989696" d="M 256.5,85.5 C 256.88,87.698 256.213,89.3646 254.5,90.5C 254.796,88.597 255.463,86.9303 256.5,85.5 Z"/></g>
<g><path style="opacity:0.502" fill="#979596" d="M 322.5,88.5 C 324.027,88.427 325.027,89.0937 325.5,90.5C 323.973,90.573 322.973,89.9063 322.5,88.5 Z"/></g>
<g><path style="opacity:0.255" fill="#c4c3c3" d="M 340.5,87.5 C 341.906,87.9731 342.573,88.9731 342.5,90.5C 341.094,90.0269 340.427,89.0269 340.5,87.5 Z"/></g>
<g><path style="opacity:0.008" fill="#cac9c9" d="M 561.5,90.5 C 562.833,90.5 563.5,91.1667 563.5,92.5C 562.5,92.1667 561.833,91.5 561.5,90.5 Z"/></g>
<g><path style="opacity:0.427" fill="#b1b0b0" d="M 33.5,90.5 C 33.1667,91.5 32.5,92.1667 31.5,92.5C 31.5,91.1667 32.1667,90.5 33.5,90.5 Z"/></g>
<g><path style="opacity:0.275" fill="#c5c3c4" d="M 217.5,89.5 C 218.906,89.9731 219.573,90.9731 219.5,92.5C 218.094,92.0269 217.427,91.0269 217.5,89.5 Z"/></g>
<g><path style="opacity:0.004" fill="#cfcfcf" d="M 343.5,91.5 C 345.5,91.5 346.5,92.5 346.5,94.5C 345.167,93.8333 344.167,92.8333 343.5,91.5 Z"/></g>
<g><path style="opacity:0.275" fill="#c5c3c4" d="M 377.5,89.5 C 377.573,91.0269 376.906,92.0269 375.5,92.5C 375.427,90.9731 376.094,89.9731 377.5,89.5 Z"/></g>
<g><path style="opacity:0.624" fill="#959393" d="M 327.5,91.5 C 329.404,91.7376 330.738,92.7376 331.5,94.5C 329.596,94.2624 328.262,93.2624 327.5,91.5 Z"/></g>
<g><path style="opacity:0.502" fill="#928f90" d="M 31.5,92.5 C 31.573,94.0269 30.9063,95.0269 29.5,95.5C 29.427,93.9731 30.0937,92.9731 31.5,92.5 Z"/></g>
<g><path style="opacity:0.498" fill="#928f90" d="M 563.5,92.5 C 564.906,92.9731 565.573,93.9731 565.5,95.5C 564.094,95.0269 563.427,94.0269 563.5,92.5 Z"/></g>
<g><path style="opacity:0.953" fill="#828080" d="M 287.5,93.5 C 288.345,94.6715 289.011,96.0048 289.5,97.5C 287.824,96.8166 287.157,95.4832 287.5,93.5 Z"/></g>
<g><path style="opacity:0.553" fill="#8a8788" d="M 333.5,95.5 C 335.027,95.427 336.027,96.0937 336.5,97.5C 334.973,97.573 333.973,96.9063 333.5,95.5 Z"/></g>
<g><path style="opacity:0.024" fill="#c3c2c2" d="M 346.5,95.5 C 346.5,96.8333 345.833,97.5 344.5,97.5C 344.833,96.5 345.5,95.8333 346.5,95.5 Z"/></g>
<g><path style="opacity:0.859" fill="#8e8c8d" d="M 221.5,96.5 C 223.262,97.2623 224.262,98.5956 224.5,100.5C 222.738,99.7377 221.738,98.4044 221.5,96.5 Z"/></g>
<g><path style="opacity:0.847" fill="#8e8d8d" d="M 373.5,96.5 C 373.262,98.4044 372.262,99.7377 370.5,100.5C 370.738,98.5956 371.738,97.2623 373.5,96.5 Z"/></g>
<g><path style="opacity:0.737" fill="#b0afaf" d="M 289.5,97.5 C 291.914,98.9108 293.581,100.911 294.5,103.5C 292.086,102.089 290.419,100.089 289.5,97.5 Z"/></g>
<g><path style="opacity:0.267" fill="#b9b8b9" d="M 336.5,97.5 C 338.764,98.2186 341.097,98.552 343.5,98.5C 342.726,99.1471 341.726,99.4805 340.5,99.5C 338.645,99.6598 337.312,98.9931 336.5,97.5 Z"/></g>
<g><path style="opacity:0.384" fill="#b2b0b1" d="M 27.5,97.5 C 27.573,99.0269 26.9063,100.027 25.5,100.5C 25.427,98.9731 26.0937,97.9731 27.5,97.5 Z"/></g>
<g><path style="opacity:0.384" fill="#b2b0b1" d="M 567.5,97.5 C 568.906,97.9731 569.573,98.9731 569.5,100.5C 568.094,100.027 567.427,99.0269 567.5,97.5 Z"/></g>
<g><path style="opacity:0.525" fill="#989696" d="M 25.5,100.5 C 25.573,102.027 24.9063,103.027 23.5,103.5C 23.427,101.973 24.0937,100.973 25.5,100.5 Z"/></g>
<g><path style="opacity:0.498" fill="#949292" d="M 224.5,100.5 C 225.906,100.973 226.573,101.973 226.5,103.5C 225.094,103.027 224.427,102.027 224.5,100.5 Z"/></g>
<g><path style="opacity:0.498" fill="#949292" d="M 370.5,100.5 C 370.573,102.027 369.906,103.027 368.5,103.5C 368.427,101.973 369.094,100.973 370.5,100.5 Z"/></g>
<g><path style="opacity:0.522" fill="#989696" d="M 569.5,100.5 C 570.906,100.973 571.573,101.973 571.5,103.5C 570.094,103.027 569.427,102.027 569.5,100.5 Z"/></g>
<g><path style="opacity:0.004" fill="#d1d1d1" d="M 226.5,103.5 C 227.833,103.5 228.5,104.167 228.5,105.5C 227.5,105.167 226.833,104.5 226.5,103.5 Z"/></g>
<g><path style="opacity:0.353" fill="#bdbcbc" d="M 368.5,103.5 C 368.167,104.5 367.5,105.167 366.5,105.5C 366.5,104.167 367.167,103.5 368.5,103.5 Z"/></g>
<g><path style="opacity:0.463" fill="#999798" d="M 23.5,103.5 C 23.573,105.027 22.9063,106.027 21.5,106.5C 21.427,104.973 22.0937,103.973 23.5,103.5 Z"/></g>
<g><path style="opacity:0.459" fill="#999798" d="M 571.5,103.5 C 572.906,103.973 573.573,104.973 573.5,106.5C 572.094,106.027 571.427,105.027 571.5,103.5 Z"/></g>
<g><path style="opacity:0.486" fill="#9b999a" d="M 21.5,106.5 C 21.573,108.027 20.9063,109.027 19.5,109.5C 19.427,107.973 20.0937,106.973 21.5,106.5 Z"/></g>
<g><path style="opacity:0.482" fill="#9b999a" d="M 573.5,106.5 C 574.906,106.973 575.573,107.973 575.5,109.5C 574.094,109.027 573.427,108.027 573.5,106.5 Z"/></g>
<g><path style="opacity:0.839" fill="#8c898a" d="M 19.5,109.5 C 19.2624,111.404 18.2624,112.738 16.5,113.5C 16.7376,111.596 17.7376,110.262 19.5,109.5 Z"/></g>
<g><path style="opacity:0.847" fill="#8c898a" d="M 575.5,109.5 C 577.262,110.262 578.262,111.596 578.5,113.5C 576.738,112.738 575.738,111.404 575.5,109.5 Z"/></g>
<g><path style="opacity:0.004" fill="#d4d4d4" d="M 234.5,111.5 C 236.027,111.427 237.027,112.094 237.5,113.5C 235.973,113.573 234.973,112.906 234.5,111.5 Z"/></g>
<g><path style="opacity:0.898" fill="#8a8788" d="M 308.5,111.5 C 309.71,111.932 310.71,112.599 311.5,113.5C 309.821,113.715 308.821,113.048 308.5,111.5 Z"/></g>
<g><path style="opacity:0.475" fill="#a5a4a4" d="M 360.5,111.5 C 359.415,113.587 357.749,114.92 355.5,115.5C 356.585,113.413 358.251,112.08 360.5,111.5 Z"/></g>
<g><path style="opacity:0.004" fill="#d6d5d5" d="M 314.5,115.5 C 316.027,115.427 317.027,116.094 317.5,117.5C 315.973,117.573 314.973,116.906 314.5,115.5 Z"/></g>
<g><path style="opacity:0.682" fill="#838182" d="M 251.5,105.5 C 251.829,111.537 251.496,117.537 250.5,123.5C 249.478,123.145 248.811,122.478 248.5,121.5C 250.144,116.41 251.144,111.077 251.5,105.5 Z"/></g>
<g><path style="opacity:0.549" fill="#b7b5b6" d="M 352.5,117.5 C 352.027,118.906 351.027,119.573 349.5,119.5C 349.973,118.094 350.973,117.427 352.5,117.5 Z"/></g>
<g><path style="opacity:0.553" fill="#8c8a8b" d="M 14.5,117.5 C 14.573,119.027 13.9063,120.027 12.5,120.5C 12.427,118.973 13.0937,117.973 14.5,117.5 Z"/></g>
<g><path style="opacity:0.008" fill="#d5d4d4" d="M 245.5,119.5 C 247.027,119.427 248.027,120.094 248.5,121.5C 246.973,121.573 245.973,120.906 245.5,119.5 Z"/></g>
<g><path style="opacity:0.808" fill="#a8a6a6" d="M 319.5,118.5 C 321.914,119.911 323.581,121.911 324.5,124.5C 322.086,123.089 320.419,121.089 319.5,118.5 Z"/></g>
<g><path style="opacity:0.545" fill="#8c8a8b" d="M 580.5,117.5 C 581.906,117.973 582.573,118.973 582.5,120.5C 581.094,120.027 580.427,119.027 580.5,117.5 Z"/></g>
<g><path style="opacity:0.514" fill="#b6b5b5" d="M 349.5,119.5 C 349.027,120.906 348.027,121.573 346.5,121.5C 346.973,120.094 347.973,119.427 349.5,119.5 Z"/></g>
<g><path style="opacity:0.329" fill="#b0aeaf" d="M 12.5,120.5 C 12.573,122.027 11.9063,123.027 10.5,123.5C 10.427,121.973 11.0937,120.973 12.5,120.5 Z"/></g>
<g><path style="opacity:0.329" fill="#b0aeaf" d="M 582.5,120.5 C 583.906,120.973 584.573,121.973 584.5,123.5C 583.094,123.027 582.427,122.027 582.5,120.5 Z"/></g>
<g><path style="opacity:0.008" fill="#cbcaca" d="M 324.5,124.5 C 325.833,124.5 326.5,125.167 326.5,126.5C 325.5,126.167 324.833,125.5 324.5,124.5 Z"/></g>
<g><path style="opacity:0.922" fill="#807d7e" d="M 344.5,122.5 C 343.313,124.975 341.313,125.975 338.5,125.5C 340.456,124.508 342.456,123.508 344.5,122.5 Z"/></g>
<g><path style="opacity:0.882" fill="#8f8d8d" d="M 335.5,126.5 C 334.01,128.28 332.01,128.946 329.5,128.5C 331.302,127.542 333.302,126.875 335.5,126.5 Z"/></g>
<g><path style="opacity:0.4" fill="#a3a2a2" d="M 326.5,126.5 C 327.5,127.167 328.5,127.833 329.5,128.5C 327.668,129.718 326.668,129.051 326.5,126.5 Z"/></g>
<g><path style="opacity:0.38" fill="#adabac" d="M 7.5,129.5 C 7.57298,131.027 6.90632,132.027 5.5,132.5C 5.42702,130.973 6.09368,129.973 7.5,129.5 Z"/></g>
<g><path style="opacity:0.384" fill="#adabac" d="M 587.5,129.5 C 588.906,129.973 589.573,130.973 589.5,132.5C 588.094,132.027 587.427,131.027 587.5,129.5 Z"/></g>
<g><path style="opacity:0.788" fill="#9b9999" d="M 582.5,141.5 C 585.228,141.171 587.562,141.837 589.5,143.5C 586.933,143.279 584.599,142.612 582.5,141.5 Z"/></g>
<g><path style="opacity:0.404" fill="#bcbbbb" d="M -0.5,143.5 C -0.166667,143.5 0.166667,143.5 0.5,143.5C 0.841711,144.338 1.50838,144.672 2.5,144.5C 1.79105,145.404 0.791047,145.737 -0.5,145.5C -0.5,144.833 -0.5,144.167 -0.5,143.5 Z"/></g>
<g><path style="opacity:0.29" fill="#c7c6c6" d="M 594.5,142.5 C 594.833,142.5 595.167,142.5 595.5,142.5C 595.5,143.5 595.5,144.5 595.5,145.5C 594.209,145.737 593.209,145.404 592.5,144.5C 593.833,144.5 594.5,143.833 594.5,142.5 Z"/></g>
<g><path style="opacity:0.004" fill="#d3d2d3" d="M 29.5,145.5 C 30.5,145.833 31.1667,146.5 31.5,147.5C 30.1667,147.5 29.5,146.833 29.5,145.5 Z"/></g>
<g><path style="opacity:0.004" fill="#d3d2d3" d="M 565.5,145.5 C 565.5,146.833 564.833,147.5 563.5,147.5C 563.833,146.5 564.5,145.833 565.5,145.5 Z"/></g>
<g><path style="opacity:0.008" fill="#d2d1d1" d="M 33.5,150.5 C 34.9063,150.973 35.573,151.973 35.5,153.5C 34.0937,153.027 33.427,152.027 33.5,150.5 Z"/></g>
<g><path style="opacity:0.008" fill="#d2d1d1" d="M 561.5,150.5 C 561.573,152.027 560.906,153.027 559.5,153.5C 559.427,151.973 560.094,150.973 561.5,150.5 Z"/></g>
<g><path style="opacity:0.433" fill="#878586" d="M 130.5,176.5 C 127.15,176.335 123.817,176.502 120.5,177C 119.263,177.232 118.263,177.732 117.5,178.5C 116.957,178.44 116.624,178.107 116.5,177.5C 117.376,176.749 118.376,176.249 119.5,176C 123.358,175.19 127.024,175.357 130.5,176.5 Z"/></g>
<g><path style="opacity:0.431" fill="#908e8f" d="M 474.5,176.5 C 469.473,176.503 464.473,176.836 459.5,177.5C 462.382,176.087 465.549,175.421 469,175.5C 471.033,175.506 472.866,175.839 474.5,176.5 Z"/></g>
<g><path style="opacity:0.451" fill="#a2a0a1" d="M 474.5,176.5 C 475.978,176.238 477.311,176.571 478.5,177.5C 478.376,178.107 478.043,178.44 477.5,178.5C 476.5,177.833 475.5,177.167 474.5,176.5 Z"/></g>
<g><path style="opacity:0.733" fill="#9f9d9e" d="M 138.5,178.5 C 140.898,178.259 142.898,178.926 144.5,180.5C 142.214,180.405 140.214,179.738 138.5,178.5 Z"/></g>
<g><path style="opacity:0.286" fill="#b4b2b3" d="M 144.5,180.5 C 146.027,180.427 147.027,181.094 147.5,182.5C 145.973,182.573 144.973,181.906 144.5,180.5 Z"/></g>
<g><path style="opacity:0.322" fill="#b6b5b5" d="M 149.5,183.5 C 151.027,183.427 152.027,184.094 152.5,185.5C 150.973,185.573 149.973,184.906 149.5,183.5 Z"/></g>
<g><path style="opacity:0.345" fill="#bab9b9" d="M 152.5,185.5 C 154.027,185.427 155.027,186.094 155.5,187.5C 153.973,187.573 152.973,186.906 152.5,185.5 Z"/></g>
<g><path style="opacity:0.812" fill="#989696" d="M 155.5,187.5 C 157.833,187.833 159.167,189.167 159.5,191.5C 157.833,190.5 156.5,189.167 155.5,187.5 Z"/></g>
<g><path style="opacity:0.651" fill="#aeacac" d="M 224.5,200.5 C 226.404,200.738 227.738,201.738 228.5,203.5C 226.596,203.262 225.262,202.262 224.5,200.5 Z"/></g>
<g><path style="opacity:0.937" fill="#959394" d="M 169.5,201.5 C 171.522,202.507 172.855,204.174 173.5,206.5C 171.478,205.493 170.145,203.826 169.5,201.5 Z"/></g>
<g><path style="opacity:0.251" fill="#c2c1c1" d="M 396.5,200.5 C 398.027,200.427 399.027,201.094 399.5,202.5C 397.973,202.573 396.973,201.906 396.5,200.5 Z"/></g>
<g><path style="opacity:0.004" fill="#e0dfe0" d="M 369.5,201.5 C 369.027,202.906 368.027,203.573 366.5,203.5C 366.973,202.094 367.973,201.427 369.5,201.5 Z"/></g>
<g><path style="opacity:0.651" fill="#a7a6a6" d="M 399.5,202.5 C 401.5,202.5 402.5,203.5 402.5,205.5C 401.167,204.833 400.167,203.833 399.5,202.5 Z"/></g>
<g><path style="opacity:0.576" fill="#b5b3b4" d="M 230.5,205.5 C 231.833,205.5 232.5,206.167 232.5,207.5C 231.5,207.167 230.833,206.5 230.5,205.5 Z"/></g>
<g><path style="opacity:0.624" fill="#aeadae" d="M 402.5,205.5 C 404.5,205.5 405.5,206.5 405.5,208.5C 404.167,207.833 403.167,206.833 402.5,205.5 Z"/></g>
<g><path style="opacity:0.004" fill="#d7d6d6" d="M 423.5,204.5 C 423.5,205.833 422.833,206.5 421.5,206.5C 421.833,205.5 422.5,204.833 423.5,204.5 Z"/></g>
<g><path style="opacity:0.945" fill="#858384" d="M 232.5,207.5 C 234.446,208.035 235.446,209.368 235.5,211.5C 234.026,210.564 233.026,209.23 232.5,207.5 Z"/></g>
<g><path style="opacity:0.137" fill="#c7c6c6" d="M 524.5,207.5 C 521.455,207.508 518.455,207.841 515.5,208.5C 516.946,207.06 518.779,206.393 521,206.5C 522.385,206.514 523.551,206.848 524.5,207.5 Z"/></g>
<g><path style="opacity:0.902" fill="#949293" d="M 174.5,208.5 C 176.446,209.035 177.446,210.368 177.5,212.5C 176.026,211.564 175.026,210.23 174.5,208.5 Z"/></g>
<g><path style="opacity:0.89" fill="#939091" d="M 405.5,208.5 C 407.446,209.035 408.446,210.368 408.5,212.5C 407.026,211.564 406.026,210.23 405.5,208.5 Z"/></g>
<g><path style="opacity:0.008" fill="#e3e2e2" d="M 66.5,209.5 C 66.1667,210.5 65.5,211.167 64.5,211.5C 64.5,210.167 65.1667,209.5 66.5,209.5 Z"/></g>
<g><path style="opacity:0.431" fill="#b9b7b7" d="M 527.5,208.5 C 529.833,208.833 531.167,210.167 531.5,212.5C 529.833,211.5 528.5,210.167 527.5,208.5 Z"/></g>
<g><path style="opacity:0.839" fill="#9a9898" d="M 86.5,212.5 C 89.1667,213.167 90.8333,214.833 91.5,217.5C 89.5,216.167 87.8333,214.5 86.5,212.5 Z"/></g>
<g><path style="opacity:0.729" fill="#9b999a" d="M 122.5,211.5 C 123.913,214.219 124.58,217.219 124.5,220.5C 123.087,217.781 122.42,214.781 122.5,211.5 Z"/></g>
<g><path style="opacity:0.153" fill="#bdbcbc" d="M 259.5,216.5 C 255.452,216.395 251.452,216.728 247.5,217.5C 249.462,215.983 251.795,215.316 254.5,215.5C 256.369,215.507 258.036,215.84 259.5,216.5 Z"/></g>
<g><path style="opacity:0.729" fill="#9b999a" d="M 472.5,211.5 C 472.58,214.781 471.913,217.781 470.5,220.5C 470.42,217.219 471.087,214.219 472.5,211.5 Z"/></g>
<g><path style="opacity:0.898" fill="#a4a2a3" d="M 179.5,216.5 C 181.074,216.937 182.241,217.937 183,219.5C 183.278,218.584 183.778,217.918 184.5,217.5C 184.688,219.103 184.188,220.437 183,221.5C 181.331,220.154 180.164,218.487 179.5,216.5 Z"/></g>
<g><path style="opacity:0.384" fill="#b5b3b3" d="M 91.5,217.5 C 93.7488,218.08 95.4154,219.413 96.5,221.5C 94.2512,220.92 92.5846,219.587 91.5,217.5 Z"/></g>
<g><path style="opacity:0.008" fill="#d0cfd0" d="M 267.5,221.5 C 268.906,221.973 269.573,222.973 269.5,224.5C 268.094,224.027 267.427,223.027 267.5,221.5 Z"/></g>
<g><path style="opacity:0.008" fill="#d0cfd0" d="M 327.5,221.5 C 327.573,223.027 326.906,224.027 325.5,224.5C 325.427,222.973 326.094,221.973 327.5,221.5 Z"/></g>
<g><path style="opacity:0.086" fill="#bdbcbc" d="M 542.5,231.5 C 542.289,233.424 541.623,233.757 540.5,232.5C 541.167,232.167 541.833,231.833 542.5,231.5 Z"/></g>
<g><path style="opacity:0.894" fill="#767373" d="M 321.5,229.5 C 321.674,231.861 322.007,234.194 322.5,236.5C 320.466,234.345 320.133,232.012 321.5,229.5 Z"/></g>
<g><path style="opacity:0.608" fill="#b0afaf" d="M 108.5,236.5 C 109.833,236.5 110.5,237.167 110.5,238.5C 109.5,238.167 108.833,237.5 108.5,236.5 Z"/></g>
<g><path style="opacity:0.004" fill="#d5d4d4" d="M 111.5,239.5 C 112.906,239.973 113.573,240.973 113.5,242.5C 112.094,242.027 111.427,241.027 111.5,239.5 Z"/></g>
<g><path style="opacity:0.933" fill="#7d7b7c" d="M 277.5,240.5 C 279.048,240.821 279.715,241.821 279.5,243.5C 278.599,242.71 277.932,241.71 277.5,240.5 Z"/></g>
<g><path style="opacity:0.004" fill="#d5d4d4" d="M 483.5,239.5 C 483.573,241.027 482.906,242.027 481.5,242.5C 481.427,240.973 482.094,239.973 483.5,239.5 Z"/></g>
<g><path style="opacity:0.937" fill="#817f7f" d="M 130.5,240.5 C 131.931,241.78 132.598,243.447 132.5,245.5C 130.787,244.365 130.12,242.698 130.5,240.5 Z"/></g>
<g><path style="opacity:0.925" fill="#817f7f" d="M 464.5,240.5 C 464.88,242.698 464.213,244.365 462.5,245.5C 462.402,243.447 463.069,241.78 464.5,240.5 Z"/></g>
<g><path style="opacity:0.227" fill="#c1bfc0" d="M 326.5,245.5 C 327.906,245.973 328.573,246.973 328.5,248.5C 327.094,248.027 326.427,247.027 326.5,245.5 Z"/></g>
<g><path style="opacity:0.573" fill="#9b9999" d="M 118.5,248.5 C 120.446,249.035 121.446,250.368 121.5,252.5C 120.026,251.564 119.026,250.23 118.5,248.5 Z"/></g>
<g><path style="opacity:0.537" fill="#aeadad" d="M 328.5,249.5 C 330.587,250.585 331.92,252.251 332.5,254.5C 330.413,253.415 329.08,251.749 328.5,249.5 Z"/></g>
<g><path style="opacity:0.875" fill="#8e8c8d" d="M 123.5,254.5 C 125.048,254.821 125.715,255.821 125.5,257.5C 124.599,256.71 123.932,255.71 123.5,254.5 Z"/></g>
<g><path style="opacity:0.435" fill="#a7a6a6" d="M 332.5,254.5 C 333.906,254.973 334.573,255.973 334.5,257.5C 333.094,257.027 332.427,256.027 332.5,254.5 Z"/></g>
<g><path style="opacity:0.925" fill="#8c8a8b" d="M 129.5,261.5 C 131.446,262.035 132.446,263.368 132.5,265.5C 131.026,264.564 130.026,263.23 129.5,261.5 Z"/></g>
<g><path style="opacity:0.569" fill="#a09e9e" d="M 290.5,260.5 C 292.446,261.035 293.446,262.368 293.5,264.5C 292.026,263.564 291.026,262.23 290.5,260.5 Z"/></g>
<g><path style="opacity:0.824" fill="#908e8f" d="M 338.5,263.5 C 340.262,264.262 341.262,265.596 341.5,267.5C 339.738,266.738 338.738,265.404 338.5,263.5 Z"/></g>
<g><path style="opacity:0.318" fill="#afaeae" d="M 141.5,265.5 C 142.906,265.973 143.573,266.973 143.5,268.5C 142.094,268.027 141.427,267.027 141.5,265.5 Z"/></g>
<g><path style="opacity:0.322" fill="#afaeae" d="M 453.5,265.5 C 453.573,267.027 452.906,268.027 451.5,268.5C 451.427,266.973 452.094,265.973 453.5,265.5 Z"/></g>
<g><path style="opacity:0.91" fill="#888686" d="M 136.5,269.5 C 138.264,270.326 139.598,271.659 140.5,273.5C 138.29,273.106 136.957,271.773 136.5,269.5 Z"/></g>
<g><path style="opacity:0.616" fill="#979596" d="M 296.5,268.5 C 298.446,269.035 299.446,270.368 299.5,272.5C 298.026,271.564 297.026,270.23 296.5,268.5 Z"/></g>
<g><path style="opacity:0.357" fill="#b0aeae" d="M 342.5,269.5 C 343.906,269.973 344.573,270.973 344.5,272.5C 343.094,272.027 342.427,271.027 342.5,269.5 Z"/></g>
<g><path style="opacity:0.533" fill="#908e8e" d="M 344.5,272.5 C 345.906,272.973 346.573,273.973 346.5,275.5C 345.094,275.027 344.427,274.027 344.5,272.5 Z"/></g>
<g><path style="opacity:0.4" fill="#a4a2a2" d="M 146.5,274.5 C 147.906,274.973 148.573,275.973 148.5,277.5C 147.094,277.027 146.427,276.027 146.5,274.5 Z"/></g>
<g><path style="opacity:0.404" fill="#a4a2a2" d="M 448.5,274.5 C 448.573,276.027 447.906,277.027 446.5,277.5C 446.427,275.973 447.094,274.973 448.5,274.5 Z"/></g>
<g><path style="opacity:0.231" fill="#b9b8b8" d="M 346.5,275.5 C 347.906,275.973 348.573,276.973 348.5,278.5C 347.094,278.027 346.427,277.027 346.5,275.5 Z"/></g>
<g><path style="opacity:0.651" fill="#a4a2a2" d="M 446.5,277.5 C 446.5,278.833 447.167,279.5 448.5,279.5C 446.849,280.97 445.015,282.303 443,283.5C 442.851,280.804 444.018,278.804 446.5,277.5 Z"/></g>
<g><path style="opacity:0.478" fill="#999898" d="M 148.5,277.5 C 150.982,278.804 152.149,280.804 152,283.5C 149.985,282.303 148.151,280.97 146.5,279.5C 147.833,279.5 148.5,278.833 148.5,277.5 Z"/></g>
<g><path style="opacity:0.529" fill="#bab9b9" d="M 304.5,279.5 C 306.5,279.5 307.5,280.5 307.5,282.5C 306.167,281.833 305.167,280.833 304.5,279.5 Z"/></g>
<g><path style="opacity:0.412" fill="#a09e9f" d="M 348.5,279.5 C 349.906,279.973 350.573,280.973 350.5,282.5C 349.094,282.027 348.427,281.027 348.5,279.5 Z"/></g>
<g><path style="opacity:0.639" fill="#acaaab" d="M 314.5,292.5 C 315.833,292.5 316.5,293.167 316.5,294.5C 315.5,294.167 314.833,293.5 314.5,292.5 Z"/></g>
<g><path style="opacity:0.004" fill="#d7d6d6" d="M 317.5,295.5 C 318.906,295.973 319.573,296.973 319.5,298.5C 318.094,298.027 317.427,297.027 317.5,295.5 Z"/></g>
<g><path style="opacity:0.898" fill="#939191" d="M 319.5,298.5 C 321.446,299.035 322.446,300.368 322.5,302.5C 321.026,301.564 320.026,300.23 319.5,298.5 Z"/></g>
<g><path style="opacity:0.98" fill="#7f7c7d" d="M 358.5,299.5 C 360.065,301.509 361.065,303.843 361.5,306.5C 359.166,304.824 358.166,302.491 358.5,299.5 Z"/></g>
<g><path style="opacity:0.004" fill="#d4d3d3" d="M 322.5,302.5 C 323.906,302.973 324.573,303.973 324.5,305.5C 323.094,305.027 322.427,304.027 322.5,302.5 Z"/></g>
<g><path style="opacity:0.741" fill="#9e9d9d" d="M 362.5,312.5 C 364.04,314.838 364.706,317.505 364.5,320.5C 363.232,318.095 362.565,315.428 362.5,312.5 Z"/></g>
<g><path style="opacity:0.855" fill="#888686" d="M 267.5,337.5 C 269.698,337.12 271.365,337.787 272.5,339.5C 270.597,339.204 268.93,338.537 267.5,337.5 Z"/></g>
<g><path style="opacity:0.792" fill="#8a8888" d="M 248.5,335.5 C 247.089,337.914 245.089,339.581 242.5,340.5C 243.911,338.086 245.911,336.419 248.5,335.5 Z"/></g>
<g><path style="opacity:0.451" fill="#a4a3a4" d="M 272.5,339.5 C 274.027,339.427 275.027,340.094 275.5,341.5C 273.973,341.573 272.973,340.906 272.5,339.5 Z"/></g>
<g><path style="opacity:0.294" fill="#bebdbd" d="M 242.5,340.5 C 241.833,341.833 240.833,342.833 239.5,343.5C 239.5,341.5 240.5,340.5 242.5,340.5 Z"/></g>
<g><path style="opacity:0.325" fill="#b4b2b3" d="M 281.5,340.5 C 282.906,340.973 283.573,341.973 283.5,343.5C 282.094,343.027 281.427,342.027 281.5,340.5 Z"/></g>
<g><path style="opacity:0.004" fill="#d6d5d6" d="M 247.5,344.5 C 247.573,346.027 246.906,347.027 245.5,347.5C 245.427,345.973 246.094,344.973 247.5,344.5 Z"/></g>
<g><path style="opacity:0.902" fill="#828080" d="M 278.5,345.5 C 280.048,345.821 280.715,346.821 280.5,348.5C 279.599,347.71 278.932,346.71 278.5,345.5 Z"/></g>
<g><path style="opacity:0.384" fill="#afadad" d="M 238.5,345.5 C 238.573,347.027 237.906,348.027 236.5,348.5C 236.427,346.973 237.094,345.973 238.5,345.5 Z"/></g>
<g><path style="opacity:0.678" fill="#939191" d="M 279.5,358.5 C 279.5,360.5 278.5,361.5 276.5,361.5C 277.167,360.167 278.167,359.167 279.5,358.5 Z"/></g>
<g><path style="opacity:0.62" fill="#a6a5a5" d="M 268.5,362.5 C 267.761,362.369 267.094,362.536 266.5,363C 267.381,363.708 268.047,364.542 268.5,365.5C 263.527,363.188 262.36,359.521 265,354.5C 265.003,357.749 266.17,360.416 268.5,362.5 Z"/></g>
<g><path style="opacity:0.004" fill="#d3d3d3" d="M 281.5,362.5 C 281.5,363.833 280.833,364.5 279.5,364.5C 279.833,363.5 280.5,362.833 281.5,362.5 Z"/></g>
<g><path style="opacity:0.859" fill="#8b8a8a" d="M 339.5,361.5 C 339.88,363.698 339.213,365.365 337.5,366.5C 337.796,364.597 338.463,362.93 339.5,361.5 Z"/></g>
<g><path style="opacity:0.157" fill="#c5c5c5" d="M 337.5,367.5 C 337.573,369.027 336.906,370.027 335.5,370.5C 335.427,368.973 336.094,367.973 337.5,367.5 Z"/></g>
<g><path style="opacity:0.376" fill="#acabac" d="M 333.5,375.5 C 333.573,377.027 332.906,378.027 331.5,378.5C 331.427,376.973 332.094,375.973 333.5,375.5 Z"/></g>
<g><path style="opacity:0.647" fill="#999798" d="M 331.5,378.5 C 330.92,380.749 329.587,382.415 327.5,383.5C 328.08,381.251 329.413,379.585 331.5,378.5 Z"/></g>
<g><path style="opacity:0.259" fill="#c2c2c2" d="M 242.5,379.5 C 243.906,379.973 244.573,380.973 244.5,382.5C 243.094,382.027 242.427,381.027 242.5,379.5 Z"/></g>
<g><path style="opacity:0.282" fill="#b7b5b6" d="M 245.5,384.5 C 246.906,384.973 247.573,385.973 247.5,387.5C 246.094,387.027 245.427,386.027 245.5,384.5 Z"/></g>
<g><path style="opacity:0.647" fill="#959394" d="M 327.5,383.5 C 326.833,386.167 325.167,387.833 322.5,388.5C 323.833,386.5 325.5,384.833 327.5,383.5 Z"/></g>
<g><path style="opacity:0.894" fill="#8a8888" d="M 234.5,387.5 C 236.048,387.821 236.715,388.821 236.5,390.5C 235.599,389.71 234.932,388.71 234.5,387.5 Z"/></g>
<g><path style="opacity:0.796" fill="#a5a3a3" d="M 247.5,387.5 C 250.243,389.239 252.243,391.573 253.5,394.5C 250.757,392.761 248.757,390.427 247.5,387.5 Z"/></g>
<g><path style="opacity:0.345" fill="#bebcbd" d="M 322.5,388.5 C 322.167,389.5 321.5,390.167 320.5,390.5C 320.5,389.167 321.167,388.5 322.5,388.5 Z"/></g>
<g><path style="opacity:0.478" fill="#adacac" d="M 320.5,390.5 C 319.738,392.262 318.404,393.262 316.5,393.5C 317.262,391.738 318.596,390.738 320.5,390.5 Z"/></g>
<g><path style="opacity:0.729" fill="#959393" d="M 316.5,393.5 C 316.027,394.906 315.027,395.573 313.5,395.5C 313.973,394.094 314.973,393.427 316.5,393.5 Z"/></g>
<g><path style="opacity:0.004" fill="#dadada" d="M 258.5,397.5 C 260.027,397.427 261.027,398.094 261.5,399.5C 259.973,399.573 258.973,398.906 258.5,397.5 Z"/></g>
<g><path style="opacity:0.004" fill="#d8d7d8" d="M 342.5,396.5 C 341.833,399.167 340.167,400.833 337.5,401.5C 338.833,399.5 340.5,397.833 342.5,396.5 Z"/></g>
<g><path style="opacity:0.722" fill="#a09f9f" d="M 244.5,401.5 C 246.5,401.5 247.5,402.5 247.5,404.5C 246.167,403.833 245.167,402.833 244.5,401.5 Z"/></g>
<g><path style="opacity:0.843" fill="#7d7b7b" d="M 303.5,400.5 C 300.992,402.554 297.992,403.554 294.5,403.5C 297.254,402.054 300.254,401.054 303.5,400.5 Z"/></g>
<g><path style="opacity:0.337" fill="#bbbaba" d="M 247.5,404.5 C 249.027,404.427 250.027,405.094 250.5,406.5C 248.973,406.573 247.973,405.906 247.5,404.5 Z"/></g>
<g><path style="opacity:0.325" fill="#b4b2b3" d="M 250.5,406.5 C 252.027,406.427 253.027,407.094 253.5,408.5C 251.973,408.573 250.973,407.906 250.5,406.5 Z"/></g>
<g><path style="opacity:0.137" fill="#cac8c9" d="M 259.5,411.5 C 261.027,411.427 262.027,412.094 262.5,413.5C 260.973,413.573 259.973,412.906 259.5,411.5 Z"/></g>
<g><path style="opacity:0.545" fill="#9e9c9c" d="M 269.5,415.5 C 272.495,415.294 275.162,415.96 277.5,417.5C 274.572,417.435 271.905,416.768 269.5,415.5 Z"/></g>
<g><path style="opacity:0.004" fill="#dfdedf" d="M 311.5,415.5 C 309.485,416.924 307.152,417.59 304.5,417.5C 306.515,416.076 308.848,415.41 311.5,415.5 Z"/></g>
</svg>
